<svg xmlns="http://www.w3.org/2000/svg" xmlns:xlink="http://www.w3.org/1999/xlink" width="490" zoomAndPan="magnify" viewBox="0 0 367.5 82.499998" height="110" preserveAspectRatio="xMidYMid meet" version="1.0"><defs><g/><clipPath id="cfd4860990"><path d="M 9.0625 3.632812 L 55 3.632812 L 55 72.679688 L 9.0625 72.679688 Z M 9.0625 3.632812 " clip-rule="nonzero"/></clipPath><clipPath id="576de10e8d"><path d="M 28 3.632812 L 84.367188 3.632812 L 84.367188 57 L 28 57 Z M 28 3.632812 " clip-rule="nonzero"/></clipPath></defs><g clip-path="url(#cfd4860990)"><path fill="#144ee3" d="M 29.101562 18.210938 L 54.21875 18.988281 L 9.0625 3.59375 L 46.714844 72.667969 L 52.671875 61.746094 L 46.714844 50.75 L 29.101562 18.210938 " fill-opacity="1" fill-rule="nonzero"/></g><g clip-path="url(#576de10e8d)"><path fill="#144ee3" d="M 67.070312 13.414062 L 55.113281 35.347656 L 49.648438 45.375 L 55.601562 56.363281 L 84.367188 3.59375 L 28.089844 3.59375 L 67.070312 13.414062 " fill-opacity="1" fill-rule="nonzero"/></g><path fill="#144ee3" d="M 49.648438 45.375 L 55.113281 35.347656 L 48.007812 22.222656 L 36.917969 21.882812 L 49.648438 45.375 " fill-opacity="1" fill-rule="nonzero"/><g fill="#fdfdfd" fill-opacity="1"><g transform="translate(92.318605, 57.595677)"><g><path d="M 12.015625 -5.09375 L 12.015625 -47.546875 L 6.3125 -47.546875 L 6.3125 0 L 34.4375 0 L 34.4375 -5.09375 Z M 12.015625 -5.09375 "/></g></g></g><g fill="#fdfdfd" fill-opacity="1"><g transform="translate(123.834494, 57.595677)"><g><path d="M 19.828125 -33.34375 C 10.875 -33.34375 3.390625 -27.578125 3.0625 -17.25 C 2.71875 -6.109375 10.390625 0.609375 21.265625 0.609375 C 25.265625 0.609375 29.40625 -0.34375 33.28125 -2.171875 L 32.46875 -6.1875 C 28.65625 -4.625 25.125 -3.796875 21.390625 -3.796875 C 13.984375 -3.796875 8.015625 -8.28125 8.359375 -15.828125 L 34.234375 -15.828125 C 36.0625 -26.625 30.96875 -33.28125 19.828125 -33.34375 Z M 19.828125 -29.140625 C 25.671875 -29.140625 30.21875 -26.078125 29.890625 -19.90625 L 8.5625 -19.90625 C 9.4375 -25.8125 13.859375 -29.140625 19.828125 -29.140625 Z M 19.828125 -29.140625 "/></g></g></g><g fill="#fdfdfd" fill-opacity="1"><g transform="translate(157.456034, 57.595677)"><g><path d="M 27.171875 -5.90625 C 27.171875 0.0625 29.75 1.09375 35.1875 0.203125 L 35.109375 -3.265625 C 31.109375 -2.71875 31.3125 -4.828125 31.3125 -8.421875 L 31.3125 -22.078125 C 31.515625 -30.625 24.390625 -33.34375 16.984375 -33.34375 C 12.640625 -33.34375 8.484375 -32.53125 5.296875 -30.90625 L 6.1875 -26.6875 C 8.96875 -28.328125 12.4375 -29.078125 16.171875 -29.078125 C 20.640625 -29.078125 26.484375 -27.71875 26.484375 -22.203125 L 26.484375 -17.453125 C 23.234375 -19.296875 18.953125 -19.828125 15.21875 -19.828125 C 8.421875 -19.828125 2.71875 -16.234375 2.71875 -8.96875 C 2.71875 -2.3125 8.21875 0.609375 14.265625 0.609375 C 19.21875 0.609375 24.796875 -1.359375 27.171875 -5.90625 Z M 26.421875 -13.375 L 26.421875 -11.28125 C 25.0625 -5.984375 19.5 -3.9375 15.21875 -3.9375 C 11.546875 -3.9375 7.953125 -5.09375 7.953125 -9.3125 C 7.953125 -13.984375 12.21875 -15.6875 16.4375 -15.6875 C 20.234375 -15.6875 24.390625 -14.609375 26.421875 -13.375 Z M 26.421875 -13.375 "/></g></g></g><g fill="#fdfdfd" fill-opacity="1"><g transform="translate(190.398335, 57.595677)"><g><path d="M 29.953125 -7 C 29.953125 0.0625 33.015625 1.015625 38.3125 0.140625 L 38.234375 -3.734375 C 33.546875 -3.1875 34.375 -6.390625 34.375 -10.796875 L 34.375 -49.71875 L 29.078125 -49.71875 L 29.078125 -30.09375 C 25.75 -32.328125 22.203125 -33.34375 18.8125 -33.34375 C 10.390625 -33.421875 3.0625 -26.96875 3.0625 -16.4375 C 3.0625 -7.265625 8.359375 0.609375 18.140625 0.609375 C 23.359375 0.546875 27.71875 -2.03125 29.953125 -7 Z M 29.203125 -25.203125 L 29.203125 -15.015625 C 29 -9.09375 25.125 -4.140625 18.875 -4.140625 C 11.8125 -4.140625 8.421875 -9.921875 8.421875 -16.4375 C 8.421875 -24.25 13.3125 -28.59375 19.296875 -28.65625 C 22.484375 -28.734375 26.015625 -27.578125 29.203125 -25.203125 Z M 29.203125 -25.203125 "/></g></g></g><g fill="#fdfdfd" fill-opacity="1"><g transform="translate(227.212314, 57.595677)"><g><path d="M 10.65625 -27.296875 C 10.875 -32.46875 7.328125 -33.6875 2.171875 -32.8125 L 2.234375 -28.859375 C 6.59375 -29.40625 6.109375 -26.015625 6.109375 -21.796875 L 6.109375 16.84375 L 11.40625 16.84375 L 11.40625 -2.234375 C 14.734375 0 18.265625 0.609375 21.671875 0.609375 C 30.09375 0.609375 37.421875 -6.109375 37.421875 -16.578125 C 37.421875 -25.953125 32.1875 -33.34375 22.625 -33.34375 C 18.203125 -33.34375 13.453125 -31.859375 10.65625 -27.296875 Z M 11.28125 -7.203125 L 11.28125 -17.9375 C 11.484375 -23.5625 15.34375 -28.53125 21.59375 -28.53125 C 28.9375 -28.53125 31.984375 -23.09375 31.984375 -16.578125 C 31.984375 -8.625 26.765625 -4.078125 20.71875 -4.078125 C 17.59375 -4.078125 14.265625 -4.828125 11.28125 -7.203125 Z M 11.28125 -7.203125 "/></g></g></g><g fill="#fdfdfd" fill-opacity="1"><g transform="translate(263.754601, 57.595677)"><g><path d="M 4.625 -43.53125 C 4.625 -38.984375 11.34375 -38.984375 11.34375 -43.53125 C 11.34375 -48.015625 4.625 -48.015625 4.625 -43.53125 Z M 10.59375 0 L 10.59375 -32.734375 L 5.296875 -32.734375 L 5.296875 0 Z M 10.59375 0 "/></g></g></g><g fill="#fdfdfd" fill-opacity="1"><g transform="translate(275.640462, 57.595677)"><g><path d="M 10.65625 -27.296875 C 10.875 -32.46875 7.328125 -33.6875 2.171875 -32.8125 L 2.234375 -28.859375 C 6.59375 -29.40625 6.109375 -26.015625 6.109375 -21.796875 L 6.109375 16.84375 L 11.40625 16.84375 L 11.40625 -2.234375 C 14.734375 0 18.265625 0.609375 21.671875 0.609375 C 30.09375 0.609375 37.421875 -6.109375 37.421875 -16.578125 C 37.421875 -25.953125 32.1875 -33.34375 22.625 -33.34375 C 18.203125 -33.34375 13.453125 -31.859375 10.65625 -27.296875 Z M 11.28125 -7.203125 L 11.28125 -17.9375 C 11.484375 -23.5625 15.34375 -28.53125 21.59375 -28.53125 C 28.9375 -28.53125 31.984375 -23.09375 31.984375 -16.578125 C 31.984375 -8.625 26.765625 -4.078125 20.71875 -4.078125 C 17.59375 -4.078125 14.265625 -4.828125 11.28125 -7.203125 Z M 11.28125 -7.203125 "/></g></g></g><g fill="#fdfdfd" fill-opacity="1"><g transform="translate(312.18275, 57.595677)"><g><path d="M 19.828125 -33.34375 C 10.875 -33.34375 3.390625 -27.578125 3.0625 -17.25 C 2.71875 -6.109375 10.390625 0.609375 21.265625 0.609375 C 25.265625 0.609375 29.40625 -0.34375 33.28125 -2.171875 L 32.46875 -6.1875 C 28.65625 -4.625 25.125 -3.796875 21.390625 -3.796875 C 13.984375 -3.796875 8.015625 -8.28125 8.359375 -15.828125 L 34.234375 -15.828125 C 36.0625 -26.625 30.96875 -33.28125 19.828125 -33.34375 Z M 19.828125 -29.140625 C 25.671875 -29.140625 30.21875 -26.078125 29.890625 -19.90625 L 8.5625 -19.90625 C 9.4375 -25.8125 13.859375 -29.140625 19.828125 -29.140625 Z M 19.828125 -29.140625 "/></g></g></g></svg>