<svg xmlns="http://www.w3.org/2000/svg" xmlns:xlink="http://www.w3.org/1999/xlink" width="500" zoomAndPan="magnify" viewBox="0 0 375 374.999991" height="500" preserveAspectRatio="xMidYMid meet" version="1.0"><defs><clipPath id="3667329af3"><path d="M 10.539062 25.179688 L 223 25.179688 L 223 349.929688 L 10.539062 349.929688 Z M 10.539062 25.179688 " clip-rule="nonzero"/></clipPath><clipPath id="1b9561bfe4"><path d="M 99 25.179688 L 364.539062 25.179688 L 364.539062 274 L 99 274 Z M 99 25.179688 " clip-rule="nonzero"/></clipPath></defs><g clip-path="url(#3667329af3)"><path fill="#144ee3" d="M 104.6875 93.820312 L 222.785156 97.460938 L 10.476562 25.09375 L 187.515625 349.859375 L 215.507812 298.507812 L 187.515625 246.804688 L 104.6875 93.820312 " fill-opacity="1" fill-rule="nonzero"/></g><g clip-path="url(#1b9561bfe4)"><path fill="#144ee3" d="M 283.207031 71.265625 L 226.996094 174.382812 L 201.292969 221.527344 L 229.300781 273.207031 L 364.550781 25.09375 L 99.929688 25.09375 L 283.207031 71.265625 " fill-opacity="1" fill-rule="nonzero"/></g><path fill="#144ee3" d="M 201.292969 221.527344 L 226.996094 174.382812 L 193.589844 112.683594 L 141.4375 111.078125 L 201.292969 221.527344 " fill-opacity="1" fill-rule="nonzero"/></svg>